# xmcd CD database file
#
# Track frame offsets:
#	150
#	13305
#	33328
#	56048
#	72808
#	89386
#	114672
#	140377
#	158110
#	176567
#	191704
#	211674
#
# Disc length: 3067 seconds
#
# Revision: 2
# Processed by: cddbd v1.5.2PL0 Copyright (c) Steve Scherf et al.
# Submitted via: CDex 1.51
#
DISCID=a50bf90c
DTITLE=Flobots - Survival Story
DYEAR=2010
DGENRE=Rap
TTITLE0=Cracks In The Surface
TTITLE1=The Effect
TTITLE2=Defend Atlantis
TTITLE3=If I
TTITLE4=White Flag Warrior
TTITLE5=By The Time You Get This Message...
TTITLE6=Airplane Mode
TTITLE7=Whips And Chains
TTITLE8=Good Soldier
TTITLE9=Superhero
TTITLE10=Infatuation
TTITLE11=Panacea For The Poison
EXTD=YEAR: 2010
EXTT0=
EXTT1=
EXTT2=
EXTT3=
EXTT4=
EXTT5=
EXTT6=
EXTT7=
EXTT8=
EXTT9=
EXTT10=
EXTT11=
PLAYORDER=
